<svg class="svg" xmlns="http://www.w3.org/2000/svg" xmlns:xlink="http://www.w3.org/1999/xlink" width="10" height="10"><path d="M5 0.5C4.7488 0.836663 4.58604 1.47121 3.54762 1.62808C3.45032 1.64219 3.35833 1.64924 3.26988 1.64924C2.61179 1.64924 2.21376 1.29142 2.21376 1.29142L1.4 2.1463C1.4 2.1463 2.65956 2.54818 1.6512 6.151C0.968354 8.59048 4.68334 8.96063 5 9.5C5.31489 8.96063 9.02988 8.59048 8.3488 6.151C7.34221 2.54818 8.6 2.1463 8.6 2.1463L7.78447 1.29142C7.78447 1.29142 7.38644 1.64924 6.72835 1.64924C6.6399 1.64924 6.54791 1.64219 6.45061 1.62808C5.41396 1.47297 5.2512 0.836663 4.99823 0.5L5 0.5Z" fill="#72CB00" stroke-width="1" stroke="#72CB00"></path></svg>